<svg xmlns="http://www.w3.org/2000/svg" width="84" height="16" fill="none"><path fill="#fff" d="m7.634 11.691 4.718 2.609-1.248-4.92 4.165-3.31-5.49-.431L7.634 1 5.49 5.639 0 6.07 4.165 9.38 2.916 14.3l4.718-2.609ZM24.634 11.691l4.718 2.609-1.248-4.92 4.165-3.31-5.49-.431L24.634 1 22.49 5.639 17 6.07l4.165 3.309-1.249 4.92 4.718-2.609ZM41.634 11.691l4.718 2.609-1.248-4.92 4.165-3.31-5.49-.431L41.634 1 39.49 5.639 34 6.07l4.165 3.309-1.249 4.92 4.718-2.609ZM58.634 11.691l4.718 2.609-1.248-4.92 4.165-3.31-5.49-.431L58.634 1 56.49 5.639 51 6.07l4.165 3.309-1.249 4.92 4.718-2.609Z"/><path fill="#fff" fill-rule="evenodd" d="m75.634 10.548 3.181 1.76-.839-3.309 2.681-2.13-3.54-.28-1.483-3.206-1.482 3.207-3.54.278L73.291 9l-.838 3.308 3.18-1.759ZM70.916 14.3l1.249-4.92L68 6.07l5.49-.431L75.634 1l2.145 4.639 5.49.432-4.165 3.309 1.249 4.92-4.719-2.609-4.718 2.609Z" clip-rule="evenodd"/></svg>