<svg xmlns="http://www.w3.org/2000/svg" width="84" height="16" viewBox="0 0 84 16" fill="none"><path fill="#fff" d="m7.634 11.691 4.718 2.609-1.248-4.92 4.165-3.31-5.49-.431L7.634 1 5.49 5.639 0 6.07 4.165 9.38 2.916 14.3l4.718-2.609ZM24.634 11.691l4.718 2.609-1.248-4.92 4.165-3.31-5.49-.431L24.634 1 22.49 5.639 17 6.07l4.165 3.309-1.249 4.92 4.718-2.609ZM41.634 11.691l4.718 2.609-1.248-4.92 4.165-3.31-5.49-.431L41.634 1 39.49 5.639 34 6.07l4.165 3.309-1.249 4.92 4.718-2.609ZM58.634 11.691l4.718 2.609-1.248-4.92 4.165-3.31-5.49-.431L58.634 1 56.49 5.639 51 6.07l4.165 3.309-1.249 4.92 4.718-2.609ZM75.634 11.691l4.719 2.609-1.249-4.92 4.165-3.31-5.49-.431L75.634 1 73.49 5.639 68 6.07l4.165 3.309-1.249 4.92 4.718-2.609Z"/></svg>
