<svg xmlns="http://www.w3.org/2000/svg" width="22" height="22" viewBox="0 0 22 22" fill="none"><path fill="#2D383F" d="M14.54 7.46A5.04 5.04 0 0 0 11 5.97 5.04 5.04 0 0 0 5.97 11a5.04 5.04 0 0 0 8.57 3.54 4.93 4.93 0 0 0 0-7.09Zm-.95 6.13A3.66 3.66 0 0 1 11 14.65c-1 0-1.93-.4-2.6-1.06A3.66 3.66 0 0 1 7.36 11c0-1 .4-1.93 1.06-2.6A3.66 3.66 0 0 1 11 7.36c1 0 1.93.4 2.6 1.06A3.66 3.66 0 0 1 14.64 11c0 1-.4 1.93-1.06 2.6ZM20.31 10.31h-2.03a.7.7 0 0 0-.7.69c0 .37.32.69.7.69h2.03A.7.7 0 0 0 21 11a.7.7 0 0 0-.69-.69ZM11 17.59a.7.7 0 0 0-.69.69v2.03c0 .37.32.69.69.69a.7.7 0 0 0 .69-.69v-2.03a.7.7 0 0 0-.69-.7ZM18.06 17.11l-1.45-1.45c-.24-.27-.69-.27-.95 0a.67.67 0 0 0 0 .95l1.45 1.45c.27.27.69.27.95 0a.67.67 0 0 0 0-.95ZM11 1a.7.7 0 0 0-.69.69v2.03c0 .38.32.7.69.7a.7.7 0 0 0 .69-.7V1.7A.7.7 0 0 0 11 1ZM18.09 3.94a.67.67 0 0 0-.95 0l-1.46 1.45a.67.67 0 0 0 0 .95c.24.27.69.27.95 0L18.1 4.9a.67.67 0 0 0 0-.95ZM3.72 10.31H1.7A.7.7 0 0 0 1 11c0 .37.3.69.69.69h2.03a.7.7 0 0 0 .7-.69.7.7 0 0 0-.7-.69ZM6.32 15.66c-.24-.27-.69-.27-.95 0L3.9 17.1a.67.67 0 0 0 0 .95c.26.27.69.27.95 0l1.46-1.45a.67.67 0 0 0 0-.95ZM6.32 5.4 4.86 3.93a.67.67 0 0 0-.95 0 .67.67 0 0 0 0 .95l1.46 1.45c.26.27.68.27.95 0a.67.67 0 0 0 0-.95Z"/></svg>
